<?xml version="1.0" encoding="UTF-8"?>
<!DOCTYPE svg PUBLIC "-//W3C//DTD SVG 1.1//EN" "http://www.w3.org/Graphics/SVG/1.1/DTD/svg11.dtd">
<svg xmlns="http://www.w3.org/2000/svg" version="1.1" width="6049px" height="915px" style="shape-rendering:geometricPrecision; text-rendering:geometricPrecision; image-rendering:optimizeQuality; fill-rule:evenodd; clip-rule:evenodd" xmlns:xlink="http://www.w3.org/1999/xlink">
<g><path style="opacity:0.992" fill="#e4cb9c" d="M 122.5,44.5 C 174.998,43.3349 227.665,43.1683 280.5,44C 295.129,86.4315 315.629,125.598 342,161.5C 398.479,229.431 469.646,251.597 555.5,228C 565.499,225.389 575.166,221.889 584.5,217.5C 585.833,218.167 586.833,219.167 587.5,220.5C 468.141,330.025 348.308,439.025 228,547.5C 227.333,502.167 227.333,456.833 228,411.5C 291.204,355.96 354.704,300.793 418.5,246C 336.081,237.601 263.748,206.601 201.5,153C 167.51,122.211 141.176,86.044 122.5,44.5 Z"/></g>
<g><path style="opacity:0.971" fill="#e4cb9c" d="M 5695.5,173.5 C 5753.42,172.113 5795.09,197.279 5820.5,249C 5811.15,249.832 5801.82,249.665 5792.5,248.5C 5768.24,206.037 5731.9,188.871 5683.5,197C 5639.57,210.935 5614.4,240.769 5608,286.5C 5605.18,330.701 5622.35,364.534 5659.5,388C 5698.77,407.267 5735.43,403.267 5769.5,376C 5779.41,367.095 5787.41,356.762 5793.5,345C 5802.5,344.333 5811.5,344.333 5820.5,345C 5800.96,387.619 5767.96,412.619 5721.5,420C 5665.7,424.356 5623.87,402.523 5596,354.5C 5573.65,305.714 5578.65,260.047 5611,217.5C 5633.49,191.839 5661.66,177.172 5695.5,173.5 Z"/></g>
<g><path style="opacity:0.998" fill="#e4cb9c" d="M 1983.5,182.5 C 1990.17,182.5 1996.83,182.5 2003.5,182.5C 2003.5,396.5 2003.5,610.5 2003.5,824.5C 1996.83,824.5 1990.17,824.5 1983.5,824.5C 1983.5,610.5 1983.5,396.5 1983.5,182.5 Z"/></g>
<g><path style="opacity:0.975" fill="#e4cb9c" d="M 5677.5,248.5 C 5699.53,248.106 5721.53,248.606 5743.5,250C 5758.21,254.899 5764.04,265.066 5761,280.5C 5756.09,296.413 5745.59,306.58 5729.5,311C 5735.29,322.089 5740.96,333.255 5746.5,344.5C 5735.52,345.666 5724.52,345.832 5713.5,345C 5709.27,334.144 5704.94,323.31 5700.5,312.5C 5697.23,311.513 5693.9,311.18 5690.5,311.5C 5688.31,322.605 5685.64,333.605 5682.5,344.5C 5673.19,345.498 5663.86,345.832 5654.5,345.5C 5662.32,313.202 5669.99,280.868 5677.5,248.5 Z M 5702.5,263.5 C 5709.56,263.212 5716.56,263.712 5723.5,265C 5731.47,268.891 5733.97,275.057 5731,283.5C 5727.9,290.266 5722.74,294.432 5715.5,296C 5708.5,296.667 5701.5,296.667 5694.5,296C 5697.4,285.244 5700.06,274.41 5702.5,263.5 Z"/></g>
<g><path style="opacity:0.989" fill="#e4cb9c" d="M 4985.5,281.5 C 5011.94,278.635 5031.11,288.968 5043,312.5C 5050.4,344.207 5039.23,366.707 5009.5,380C 4981.69,388.172 4960.19,380.006 4945,355.5C 4935.73,328.649 4942.56,306.815 4965.5,290C 4971.89,286.3 4978.56,283.466 4985.5,281.5 Z"/></g>
<g><path style="opacity:0.98" fill="#e4cb9c" d="M 791.5,297.5 C 820.31,295.478 834.143,308.811 833,337.5C 828.652,354.506 817.652,363.506 800,364.5C 779.25,362.583 768.083,351.25 766.5,330.5C 767.377,313.707 775.711,302.707 791.5,297.5 Z"/></g>
<g><path style="opacity:0.985" fill="#e4cb9c" d="M 662.5,304.5 C 681.5,304.5 700.5,304.5 719.5,304.5C 719.5,431.833 719.5,559.167 719.5,686.5C 700.5,686.5 681.5,686.5 662.5,686.5C 662.667,668.83 662.5,651.164 662,633.5C 639.782,671.621 606.448,690.954 562,691.5C 501.679,688.344 462.346,658.01 444,600.5C 436.539,570.73 435.539,540.73 441,510.5C 452.703,460.467 482.87,427.3 531.5,411C 564.138,401.201 595.471,404.201 625.5,420C 640.714,429.547 652.881,442.047 662,457.5C 662.5,406.501 662.667,355.501 662.5,304.5 Z M 570.5,453.5 C 615.74,452.441 645.073,473.441 658.5,516.5C 667.402,550.362 662.568,582.029 644,611.5C 620.349,639.826 590.515,649.326 554.5,640C 520.323,626.465 501.157,601.298 497,564.5C 492.789,533.336 500.123,505.336 519,480.5C 532.88,465.095 550.047,456.095 570.5,453.5 Z"/></g>
<g><path style="opacity:0.993" fill="#e4cb9c" d="M 3348.5,313.5 C 3375.53,313.073 3402.53,313.573 3429.5,315C 3437.22,316.386 3442.05,320.886 3444,328.5C 3445.32,423.457 3445.99,518.457 3446,613.5C 3445.61,623.681 3448.78,632.515 3455.5,640C 3461.31,643.327 3466.47,647.494 3471,652.5C 3476.57,663.455 3475.07,673.289 3466.5,682C 3464.5,683 3462.5,684 3460.5,685C 3446.04,686.113 3431.54,686.613 3417,686.5C 3402.79,686.622 3388.62,686.122 3374.5,685C 3368.13,683.564 3363.96,679.731 3362,673.5C 3361.29,668.955 3359.96,664.622 3358,660.5C 3355.07,656.699 3351.9,656.533 3348.5,660C 3331.46,682.351 3308.79,693.184 3280.5,692.5C 3223.49,688.668 3186.65,659.334 3170,604.5C 3158.42,557.727 3164.42,513.394 3188,471.5C 3215.24,428.62 3254.41,406.62 3305.5,405.5C 3319.98,405.949 3334.31,407.616 3348.5,410.5C 3351.01,410.712 3353.18,410.045 3355,408.5C 3356.11,403.609 3356.61,398.609 3356.5,393.5C 3358.5,380.336 3354.5,369.503 3344.5,361C 3336.06,357.216 3329.56,351.383 3325,343.5C 3321.77,324.892 3329.6,314.892 3348.5,313.5 Z M 3302.5,459.5 C 3333.09,457.254 3350.92,471.254 3356,501.5C 3357.93,531.528 3357.59,561.528 3355,591.5C 3347.24,614.14 3331.41,623.64 3307.5,620C 3295.97,616.983 3286.47,610.817 3279,601.5C 3256.09,568.535 3250.75,532.868 3263,494.5C 3270.47,476.18 3283.64,464.514 3302.5,459.5 Z"/></g>
<g><path style="opacity:0.992" fill="#e4cb9c" d="M 3780.5,314.5 C 3829.5,313.779 3873.5,327.946 3912.5,357C 3921.75,364.247 3929.58,372.747 3936,382.5C 3939.33,390.5 3939.33,398.5 3936,406.5C 3933.73,411.098 3931.06,415.431 3928,419.5C 3916.53,431.632 3904.03,442.466 3890.5,452C 3879.25,458.808 3867.91,459.141 3856.5,453C 3853.63,450.463 3851.13,447.63 3849,444.5C 3840.3,426.816 3829.63,410.483 3817,395.5C 3791.25,369.345 3762.75,365.845 3731.5,385C 3712.29,403.266 3702.12,425.766 3701,452.5C 3698.46,497.536 3710.79,537.869 3738,573.5C 3778.93,617.494 3826.1,625.327 3879.5,597C 3889.03,591.405 3898.03,585.071 3906.5,578C 3914.58,573.261 3922.24,573.928 3929.5,580C 3935.23,584.387 3939.4,589.887 3942,596.5C 3942.67,600.167 3942.67,603.833 3942,607.5C 3938.46,617.59 3933.12,626.59 3926,634.5C 3883.99,678.402 3832.49,698.235 3771.5,694C 3701.24,687.344 3649.4,653.177 3616,591.5C 3587.79,530.326 3588.79,469.66 3619,409.5C 3647.69,361.378 3689.52,331.212 3744.5,319C 3756.57,316.825 3768.57,315.325 3780.5,314.5 Z"/></g>
<g><path style="opacity:0.995" fill="#e4cb9c" d="M 3965.5,315.5 C 3993.87,315.06 4022.2,315.56 4050.5,317C 4057.86,319.695 4062.36,324.862 4064,332.5C 4064.33,427.5 4064.67,522.5 4065,617.5C 4065.1,625.81 4067.93,632.976 4073.5,639C 4079.23,642.062 4084.4,645.896 4089,650.5C 4094.59,659.263 4094.92,668.263 4090,677.5C 4087.07,681.381 4083.24,683.881 4078.5,685C 4041.54,686.635 4004.54,686.968 3967.5,686C 3950.66,683.178 3944.16,673.345 3948,656.5C 3950.08,652.421 3952.91,648.921 3956.5,646C 3969.11,640.291 3975.28,630.457 3975,616.5C 3975.67,539.833 3975.67,463.167 3975,386.5C 3974.86,379.269 3972.86,372.602 3969,366.5C 3963.18,361.592 3957.18,356.925 3951,352.5C 3943.79,342.534 3943.79,332.534 3951,322.5C 3955.23,318.712 3960.07,316.379 3965.5,315.5 Z"/></g>
<g><path style="opacity:0.992" fill="#e4cb9c" d="M 2215.5,320.5 C 2287.52,320.029 2359.52,320.529 2431.5,322C 2495.47,332.963 2525.64,370.796 2522,435.5C 2517.4,458.863 2505.57,477.696 2486.5,492C 2476.69,499.127 2466.36,505.46 2455.5,511C 2452.83,513.667 2452.83,516.333 2455.5,519C 2468.19,526.026 2478.69,535.526 2487,547.5C 2498.17,566.512 2508.84,585.845 2519,605.5C 2527.4,621.234 2539.23,633.734 2554.5,643C 2563.14,653.543 2564.64,665.043 2559,677.5C 2554.17,683.165 2548,685.998 2540.5,686C 2517.17,686.667 2493.83,686.667 2470.5,686C 2451.79,685.902 2437.96,677.736 2429,661.5C 2421.14,643.582 2413.47,625.582 2406,607.5C 2399.53,593.392 2391.87,580.059 2383,567.5C 2372.83,554.416 2359.5,547.416 2343,546.5C 2336.28,545.395 2331.28,547.729 2328,553.5C 2327.33,573.833 2327.33,594.167 2328,614.5C 2328.53,623.724 2332.36,631.224 2339.5,637C 2344.51,640.507 2349.84,643.507 2355.5,646C 2363.69,652.237 2366.52,660.404 2364,670.5C 2360.13,680.678 2352.63,685.845 2341.5,686C 2300.83,686.667 2260.17,686.667 2219.5,686C 2202,682.525 2195.5,672.025 2200,654.5C 2201.4,651.098 2203.57,648.264 2206.5,646C 2216.09,642.13 2223.26,635.63 2228,626.5C 2228.67,623.833 2229.33,621.167 2230,618.5C 2230.67,542.167 2230.67,465.833 2230,389.5C 2229.22,383.147 2226.89,377.48 2223,372.5C 2215.72,367.55 2208.72,362.217 2202,356.5C 2195.97,344.256 2197.81,333.423 2207.5,324C 2210.31,322.907 2212.98,321.74 2215.5,320.5 Z M 2335.5,378.5 C 2348.84,378.333 2362.17,378.5 2375.5,379C 2397.99,384.158 2411.82,397.991 2417,420.5C 2419.13,458.392 2401.29,480.225 2363.5,486C 2353.5,486.667 2343.5,486.667 2333.5,486C 2329.75,484.013 2327.92,480.846 2328,476.5C 2327.33,446.833 2327.33,417.167 2328,387.5C 2328.92,383.086 2331.42,380.086 2335.5,378.5 Z"/></g>
<g><path style="opacity:0.985" fill="#e4cb9c" d="M 1631.5,331.5 C 1650.5,331.5 1669.5,331.5 1688.5,331.5C 1688.5,357.833 1688.5,384.167 1688.5,410.5C 1719.51,410.167 1750.51,410.5 1781.5,411.5C 1773.93,427.298 1766.93,443.298 1760.5,459.5C 1736.5,459.5 1712.5,459.5 1688.5,459.5C 1688.33,505.835 1688.5,552.168 1689,598.5C 1691.88,626.55 1707.38,640.884 1735.5,641.5C 1749,640.524 1762.34,638.524 1775.5,635.5C 1775.83,651.514 1775.5,667.514 1774.5,683.5C 1753.29,690.008 1731.63,692.175 1709.5,690C 1669.71,684.21 1645.21,661.71 1636,622.5C 1633.92,613.274 1632.59,603.94 1632,594.5C 1631.5,506.834 1631.33,419.167 1631.5,331.5 Z"/></g>
<g><path style="opacity:0.992" fill="#e4cb9c" d="M 2693.5,402.5 C 2749.39,399.534 2793.56,420.534 2826,465.5C 2853.73,511.826 2857.73,560.16 2838,610.5C 2815.89,656.161 2779.72,683.328 2729.5,692C 2668.55,700.918 2619.05,681.418 2581,633.5C 2554.28,592.093 2548.28,547.759 2563,500.5C 2582.33,449.844 2618.5,418.344 2671.5,406C 2678.96,404.7 2686.29,403.533 2693.5,402.5 Z M 2685.5,461.5 C 2694.94,461.259 2703.61,463.759 2711.5,469C 2726.46,481.307 2737.63,496.474 2745,514.5C 2757.23,542.076 2761.23,570.742 2757,600.5C 2748.89,627.655 2731.05,638.488 2703.5,633C 2689.11,625.939 2677.94,615.439 2670,601.5C 2652.91,572.486 2645.25,541.153 2647,507.5C 2648.65,489.674 2656.82,475.841 2671.5,466C 2676.13,463.956 2680.79,462.456 2685.5,461.5 Z"/></g>
<g><path style="opacity:0.991" fill="#e4cb9c" d="M 4518.5,402.5 C 4555.58,399.017 4590.58,405.851 4623.5,423C 4630.07,427.364 4635.91,432.53 4641,438.5C 4644.36,445.805 4645.36,453.471 4644,461.5C 4641.32,473.879 4636.16,485.046 4628.5,495C 4620.78,499.581 4613.45,498.915 4606.5,493C 4594.5,483 4582.5,473 4570.5,463C 4560.03,455.432 4548.37,451.265 4535.5,450.5C 4523.31,450.177 4514.14,455.177 4508,465.5C 4504.15,476.284 4506.98,484.784 4516.5,491C 4521.62,494.044 4526.96,496.711 4532.5,499C 4554.32,506.272 4575.98,513.939 4597.5,522C 4646.35,543.211 4663.19,579.377 4648,630.5C 4640.44,648.392 4628.27,662.226 4611.5,672C 4589.55,684.648 4565.88,691.648 4540.5,693C 4506,695.522 4472.66,690.522 4440.5,678C 4426.77,672.93 4416.93,663.763 4411,650.5C 4409.46,639.332 4411.13,628.665 4416,618.5C 4419.34,611.798 4422.67,605.131 4426,598.5C 4434,590.148 4442.84,589.315 4452.5,596C 4465.54,608.039 4478.87,619.706 4492.5,631C 4503.33,638.577 4515.33,643.077 4528.5,644.5C 4542.48,644.1 4552.65,637.767 4559,625.5C 4560.39,612.53 4555.22,603.03 4543.5,597C 4536.04,592.955 4528.37,589.288 4520.5,586C 4503.68,580.394 4487.01,574.394 4470.5,568C 4416.06,544.343 4401.22,505.51 4426,451.5C 4442.21,429.456 4463.71,414.956 4490.5,408C 4499.91,405.825 4509.24,403.991 4518.5,402.5 Z"/></g>
<g><path style="opacity:0.991" fill="#e4cb9c" d="M 4776.5,402.5 C 4812.74,399.316 4847.07,405.816 4879.5,422C 4886.54,426.038 4892.71,431.204 4898,437.5C 4902.2,444.597 4903.54,452.264 4902,460.5C 4899.11,473.104 4893.94,484.604 4886.5,495C 4879.35,499.526 4872.35,499.192 4865.5,494C 4852.79,482.955 4839.79,472.289 4826.5,462C 4816.36,455.174 4805.19,451.341 4793,450.5C 4776.6,450.598 4766.76,458.598 4763.5,474.5C 4764.93,483.097 4769.59,489.263 4777.5,493C 4783.33,496.055 4789.33,498.722 4795.5,501C 4813.84,507.337 4832.18,513.67 4850.5,520C 4907.3,543.387 4924.13,583.553 4901,640.5C 4882.78,667.051 4857.62,683.218 4825.5,689C 4784.8,696.936 4744.8,694.269 4705.5,681C 4691.33,676.355 4679.83,668.189 4671,656.5C 4666.65,646.224 4666.65,635.89 4671,625.5C 4675,616.833 4679,608.167 4683,599.5C 4691.64,589.818 4701.14,588.985 4711.5,597C 4722.47,606.297 4733.13,615.964 4743.5,626C 4755.79,636.395 4769.96,642.562 4786,644.5C 4799.2,644.241 4809.2,638.575 4816,627.5C 4818.89,613.775 4814.06,603.608 4801.5,597C 4793.07,592.453 4784.41,588.453 4775.5,585C 4753.71,578.625 4732.71,570.292 4712.5,560C 4678.84,541.053 4666,512.553 4674,474.5C 4682.72,446.106 4700.89,426.273 4728.5,415C 4744.05,408.614 4760.05,404.447 4776.5,402.5 Z"/></g>
<g><path style="opacity:0.991" fill="#e4cb9c" d="M 5207.5,402.5 C 5250,400.391 5288,412.225 5321.5,438C 5327.08,442.907 5331.91,448.407 5336,454.5C 5341.39,465.951 5340.06,476.618 5332,486.5C 5321.72,499.12 5309.88,509.954 5296.5,519C 5283.64,526.584 5272.48,524.751 5263,513.5C 5254.46,496.636 5243.29,481.803 5229.5,469C 5207.96,455.429 5189.8,458.929 5175,479.5C 5168.79,491.207 5165.62,503.707 5165.5,517C 5165.91,544.489 5174.07,569.322 5190,591.5C 5219.44,624.934 5253.61,630.434 5292.5,608C 5300.61,601.545 5309.44,596.379 5319,592.5C 5329.49,595.653 5336.82,602.319 5341,612.5C 5341.83,617.589 5341.49,622.589 5340,627.5C 5321.25,657.649 5294.75,677.816 5260.5,688C 5200.95,703.476 5150.11,688.976 5108,644.5C 5072.14,598.135 5063.8,547.135 5083,491.5C 5107.92,438.767 5149.42,409.101 5207.5,402.5 Z"/></g>
<g><path style="opacity:0.991" fill="#e4cb9c" d="M 5465.5,402.5 C 5501.26,399.293 5535.26,405.459 5567.5,421C 5575.77,425.886 5582.94,432.052 5589,439.5C 5591.03,443.773 5592.19,448.273 5592.5,453C 5590.74,466.295 5586.57,478.795 5580,490.5C 5571.44,500.587 5562.28,501.087 5552.5,492C 5540.2,481.188 5527.53,470.855 5514.5,461C 5501.42,451.852 5487.09,448.852 5471.5,452C 5457.23,457.056 5451.73,466.889 5455,481.5C 5457.83,485.667 5461.33,489.167 5465.5,492C 5471.05,494.94 5476.71,497.606 5482.5,500C 5502.58,506.803 5522.58,513.803 5542.5,521C 5562.48,528.652 5578.64,541.152 5591,558.5C 5609.53,598.064 5603.03,632.897 5571.5,663C 5546.74,681.699 5518.74,691.699 5487.5,693C 5454.91,695.302 5423.25,690.968 5392.5,680C 5381.58,675.962 5372.08,669.796 5364,661.5C 5356.48,649.792 5355.48,637.458 5361,624.5C 5364.85,613.916 5370.02,604.083 5376.5,595C 5385.81,589.913 5394.48,590.913 5402.5,598C 5414.5,608.667 5426.5,619.333 5438.5,630C 5449.53,638.18 5461.86,643.013 5475.5,644.5C 5492.39,644.245 5503.05,636.079 5507.5,620C 5506.34,611.682 5502.34,605.015 5495.5,600C 5489.82,596.159 5483.82,592.826 5477.5,590C 5456.76,582.53 5436.09,574.863 5415.5,567C 5367.72,546.265 5351.88,511.099 5368,461.5C 5382.46,434.387 5404.63,416.887 5434.5,409C 5444.85,406.231 5455.18,404.065 5465.5,402.5 Z"/></g>
<g><path style="opacity:0.988" fill="#e4cb9c" d="M 1011.5,405.5 C 1020.83,405.5 1030.17,405.5 1039.5,405.5C 1039.5,423.5 1039.5,441.5 1039.5,459.5C 1020.65,458.5 1002.31,461 984.5,467C 956.56,480.302 941.06,502.469 938,533.5C 937.5,584.499 937.333,635.499 937.5,686.5C 918.833,686.5 900.167,686.5 881.5,686.5C 881.5,594.5 881.5,502.5 881.5,410.5C 900.167,410.5 918.833,410.5 937.5,410.5C 937.333,431.836 937.5,453.169 938,474.5C 948.958,436.699 973.458,413.699 1011.5,405.5 Z"/></g>
<g><path style="opacity:0.988" fill="#e4cb9c" d="M 1165.5,405.5 C 1235.48,403.373 1281.31,435.373 1303,501.5C 1308.34,522.23 1309.84,543.23 1307.5,564.5C 1236.83,564.5 1166.17,564.5 1095.5,564.5C 1097.94,602.076 1116.6,627.576 1151.5,641C 1176.56,647.68 1200.56,645.013 1223.5,633C 1235.18,625.484 1243.84,615.317 1249.5,602.5C 1267.83,601.167 1286.17,601.167 1304.5,602.5C 1291.03,647.139 1261.69,675.306 1216.5,687C 1179.5,695.777 1143.83,692.111 1109.5,676C 1068.12,651.786 1044.95,615.619 1040,567.5C 1035.53,527.377 1044.53,490.711 1067,457.5C 1092.38,426.059 1125.22,408.726 1165.5,405.5 Z M 1166.5,452.5 C 1215.15,450.802 1243.82,473.802 1252.5,521.5C 1200.5,521.5 1148.5,521.5 1096.5,521.5C 1103.99,482.34 1127.33,459.34 1166.5,452.5 Z"/></g>
<g><path style="opacity:0.986" fill="#e4cb9c" d="M 1461.5,405.5 C 1505.6,402.486 1542.76,416.819 1573,448.5C 1587.12,466.002 1595.28,486.002 1597.5,508.5C 1577.5,508.5 1557.5,508.5 1537.5,508.5C 1532.24,476.741 1513.57,458.575 1481.5,454C 1449.27,452.199 1424.77,465.032 1408,492.5C 1393.54,521.655 1390.54,551.988 1399,583.5C 1414.91,630.363 1447.07,649.196 1495.5,640C 1520.34,631.661 1534.34,614.494 1537.5,588.5C 1557.5,588.5 1577.5,588.5 1597.5,588.5C 1591.43,633.459 1567.43,664.625 1525.5,682C 1484.66,696.276 1444.66,694.276 1405.5,676C 1364.12,651.786 1340.95,615.619 1336,567.5C 1331.53,527.377 1340.53,490.711 1363,457.5C 1388.38,426.06 1421.21,408.726 1461.5,405.5 Z"/></g>
<g><path style="opacity:0.992" fill="#e4cb9c" d="M 2958.5,406.5 C 2975.84,406.333 2993.17,406.5 3010.5,407C 3038,408.168 3063,416.501 3085.5,432C 3101.74,445.975 3112.24,463.475 3117,484.5C 3122.4,520.062 3127.07,555.729 3131,591.5C 3132.65,614.471 3141.99,633.471 3159,648.5C 3166.26,660.909 3164.43,671.742 3153.5,681C 3146.32,686.131 3138.32,689.131 3129.5,690C 3101.37,693.893 3077.04,686.227 3056.5,667C 3054.97,666.077 3053.3,665.577 3051.5,665.5C 3041.07,671.215 3030.41,676.715 3019.5,682C 2992.8,692.097 2965.46,694.431 2937.5,689C 2893.12,674.779 2870.12,644.279 2868.5,597.5C 2870.64,554.396 2891.64,524.563 2931.5,508C 2945.96,502.275 2960.96,499.442 2976.5,499.5C 2990.75,499.962 3004.91,501.295 3019,503.5C 3022.67,504 3025.33,502.666 3027,499.5C 3027.41,477.573 3016.91,464.073 2995.5,459C 2984.04,457.559 2973.04,459.226 2962.5,464C 2955.55,466.806 2948.89,470.139 2942.5,474C 2931.76,481.064 2920.76,487.731 2909.5,494C 2902.44,495.745 2896.27,494.245 2891,489.5C 2881.03,473.6 2876.37,456.266 2877,437.5C 2878.95,429.889 2883.45,424.389 2890.5,421C 2900.12,416.762 2910.12,413.762 2920.5,412C 2933.27,409.824 2945.93,407.99 2958.5,406.5 Z M 2999.5,545.5 C 3009.62,545.137 3019.28,546.971 3028.5,551C 3033.86,555.219 3037.03,560.719 3038,567.5C 3039.88,579.827 3041.71,592.16 3043.5,604.5C 3040.79,623.373 3029.79,633.539 3010.5,635C 2988.82,636.665 2973.66,627.499 2965,607.5C 2958.1,591.403 2959.43,576.07 2969,561.5C 2977.09,552.04 2987.26,546.707 2999.5,545.5 Z"/></g>
<g><path style="opacity:0.992" fill="#e4cb9c" d="M 4191.5,406.5 C 4208.84,406.333 4226.17,406.5 4243.5,407C 4271.01,408.169 4296.01,416.503 4318.5,432C 4335.93,447.349 4346.76,466.516 4351,489.5C 4355.74,523.776 4360.08,558.109 4364,592.5C 4365.91,614.985 4375.24,633.652 4392,648.5C 4400.5,666.019 4395.67,678.519 4377.5,686C 4344.43,696.379 4315.1,690.045 4289.5,667C 4287.72,666.296 4285.89,665.796 4284,665.5C 4274.2,670.602 4264.37,675.769 4254.5,681C 4222.91,693.925 4190.91,695.258 4158.5,685C 4120.86,668.156 4101.86,638.989 4101.5,597.5C 4103.18,558.637 4121.18,530.137 4155.5,512C 4172.55,503.737 4190.55,499.571 4209.5,499.5C 4223.75,499.962 4237.91,501.295 4252,503.5C 4256.12,504.107 4258.79,502.44 4260,498.5C 4259.89,477.125 4249.39,463.959 4228.5,459C 4212.07,457.918 4196.74,461.585 4182.5,470C 4169.17,478 4155.83,486 4142.5,494C 4135.44,495.745 4129.27,494.245 4124,489.5C 4113.71,473.694 4109.05,456.36 4110,437.5C 4111.53,430.638 4115.36,425.472 4121.5,422C 4131.67,417.123 4142.34,413.79 4153.5,412C 4166.27,409.824 4178.93,407.99 4191.5,406.5 Z M 4232.5,545.5 C 4242.62,545.137 4252.28,546.971 4261.5,551C 4267.11,555.469 4270.27,561.302 4271,568.5C 4273,580.642 4274.83,592.809 4276.5,605C 4273.51,623.647 4262.51,633.647 4243.5,635C 4220.85,636.425 4205.35,626.592 4197,605.5C 4189.24,582.798 4195.07,564.631 4214.5,551C 4220.41,548.415 4226.41,546.581 4232.5,545.5 Z"/></g>
<g><path style="opacity:0.979" fill="#e4cb9c" d="M 771.5,410.5 C 790.5,410.5 809.5,410.5 828.5,410.5C 828.5,502.5 828.5,594.5 828.5,686.5C 809.5,686.5 790.5,686.5 771.5,686.5C 771.5,594.5 771.5,502.5 771.5,410.5 Z"/></g>
<g><path style="opacity:0.991" fill="#e4cb9c" d="M 4940.5,410.5 C 4968.53,410.071 4996.53,410.571 5024.5,412C 5035.13,415.034 5040.63,422.201 5041,433.5C 5041.33,495.167 5041.67,556.833 5042,618.5C 5042.31,626.449 5045.14,633.282 5050.5,639C 5059.07,643.026 5065.57,649.193 5070,657.5C 5073.35,673.81 5066.85,683.31 5050.5,686C 5015.17,686.667 4979.83,686.667 4944.5,686C 4931.81,684.476 4925.14,677.309 4924.5,664.5C 4924.3,658.439 4926.3,653.272 4930.5,649C 4938.67,644.493 4945.17,638.326 4950,630.5C 4950.92,627.899 4951.59,625.232 4952,622.5C 4952.67,573.833 4952.67,525.167 4952,476.5C 4951.33,471.481 4949.66,466.814 4947,462.5C 4940.96,456.791 4934.63,451.457 4928,446.5C 4920.92,434.407 4922.42,423.574 4932.5,414C 4935.16,412.522 4937.82,411.355 4940.5,410.5 Z"/></g>
</svg>
