<svg xmlns="http://www.w3.org/2000/svg" id="graphic" viewBox="21.03 21.03 113.25 117.86"><defs><style>.cls-1{fill:#450521;}</style></defs><path class="cls-1" d="M122,102.81c-7.92,15.81-23.79,26.64-42,26.64-26.14,0-47.42-22.2-47.42-49.49S53.82,30.47,80,30.47c18.25,0,34.12,10.83,42,26.65h12.28a58.93,58.93,0,1,0,0,45.69Z"/><path class="cls-1" d="M83.81,102.81,77.4,86.56H72.51l-4,16.25h-13L66.75,57.12H93c10.21,0,14.94,6.59,12.94,14.72-1.67,6.79-7.46,12.5-15.31,14.21L99,102.81Zm-5.69-39-4,16.12h7.3c5.84,0,9.81-2.48,11.19-8.06.91-3.68-1.38-8.06-7.22-8.06Z"/></svg>